<mxfile host="app.diagrams.net" modified="2023-06-24T05:06:25.410Z" agent="Mozilla/5.0 (Windows NT 10.0; Win64; x64) AppleWebKit/537.36 (KHTML, like Gecko) Chrome/114.0.0.0 Safari/537.36" etag="V072fBOmYuJoJWCwW28n" version="21.5.0" type="device">
  <diagram id="C5RBs43oDa-KdzZeNtuy" name="Page-1">
    <mxGraphModel dx="600" dy="314" grid="1" gridSize="10" guides="1" tooltips="1" connect="1" arrows="1" fold="1" page="1" pageScale="1" pageWidth="827" pageHeight="1169" math="0" shadow="0">
      <root>
        <mxCell id="WIyWlLk6GJQsqaUBKTNV-0" />
        <mxCell id="WIyWlLk6GJQsqaUBKTNV-1" parent="WIyWlLk6GJQsqaUBKTNV-0" />
        <mxCell id="B_WRJBv8TTsJT2D4ohCq-2" value="" style="edgeStyle=orthogonalEdgeStyle;rounded=0;orthogonalLoop=1;jettySize=auto;html=1;" edge="1" parent="WIyWlLk6GJQsqaUBKTNV-1" source="WIyWlLk6GJQsqaUBKTNV-3" target="B_WRJBv8TTsJT2D4ohCq-1">
          <mxGeometry relative="1" as="geometry" />
        </mxCell>
        <mxCell id="WIyWlLk6GJQsqaUBKTNV-3" value="main.m" style="rounded=1;whiteSpace=wrap;html=1;fontSize=12;glass=0;strokeWidth=1;shadow=0;" parent="WIyWlLk6GJQsqaUBKTNV-1" vertex="1">
          <mxGeometry x="354" width="120" height="40" as="geometry" />
        </mxCell>
        <mxCell id="B_WRJBv8TTsJT2D4ohCq-4" value="" style="edgeStyle=orthogonalEdgeStyle;rounded=0;orthogonalLoop=1;jettySize=auto;html=1;" edge="1" parent="WIyWlLk6GJQsqaUBKTNV-1" source="B_WRJBv8TTsJT2D4ohCq-1" target="B_WRJBv8TTsJT2D4ohCq-3">
          <mxGeometry relative="1" as="geometry" />
        </mxCell>
        <mxCell id="B_WRJBv8TTsJT2D4ohCq-1" value="Se definen todos los escenarios" style="rounded=1;whiteSpace=wrap;html=1;" vertex="1" parent="WIyWlLk6GJQsqaUBKTNV-1">
          <mxGeometry x="354" y="70" width="120" height="60" as="geometry" />
        </mxCell>
        <mxCell id="B_WRJBv8TTsJT2D4ohCq-6" value="" style="edgeStyle=orthogonalEdgeStyle;rounded=0;orthogonalLoop=1;jettySize=auto;html=1;" edge="1" parent="WIyWlLk6GJQsqaUBKTNV-1" source="B_WRJBv8TTsJT2D4ohCq-3" target="B_WRJBv8TTsJT2D4ohCq-5">
          <mxGeometry relative="1" as="geometry" />
        </mxCell>
        <mxCell id="B_WRJBv8TTsJT2D4ohCq-3" value="Se elige la modulación a utilizar: QPSK, 8PSK o 16QAM" style="rounded=1;whiteSpace=wrap;html=1;" vertex="1" parent="WIyWlLk6GJQsqaUBKTNV-1">
          <mxGeometry x="351" y="160" width="126" height="60" as="geometry" />
        </mxCell>
        <mxCell id="B_WRJBv8TTsJT2D4ohCq-9" style="edgeStyle=orthogonalEdgeStyle;rounded=0;orthogonalLoop=1;jettySize=auto;html=1;entryX=0.5;entryY=0;entryDx=0;entryDy=0;" edge="1" parent="WIyWlLk6GJQsqaUBKTNV-1" source="B_WRJBv8TTsJT2D4ohCq-5" target="B_WRJBv8TTsJT2D4ohCq-7">
          <mxGeometry relative="1" as="geometry" />
        </mxCell>
        <mxCell id="B_WRJBv8TTsJT2D4ohCq-10" style="edgeStyle=orthogonalEdgeStyle;rounded=0;orthogonalLoop=1;jettySize=auto;html=1;entryX=0.5;entryY=0;entryDx=0;entryDy=0;" edge="1" parent="WIyWlLk6GJQsqaUBKTNV-1" source="B_WRJBv8TTsJT2D4ohCq-5" target="B_WRJBv8TTsJT2D4ohCq-8">
          <mxGeometry relative="1" as="geometry" />
        </mxCell>
        <mxCell id="B_WRJBv8TTsJT2D4ohCq-5" value="Se calcula el BER para" style="rounded=1;whiteSpace=wrap;html=1;" vertex="1" parent="WIyWlLk6GJQsqaUBKTNV-1">
          <mxGeometry x="354" y="240" width="120" height="60" as="geometry" />
        </mxCell>
        <mxCell id="B_WRJBv8TTsJT2D4ohCq-13" style="edgeStyle=orthogonalEdgeStyle;rounded=0;orthogonalLoop=1;jettySize=auto;html=1;entryX=0.5;entryY=0;entryDx=0;entryDy=0;" edge="1" parent="WIyWlLk6GJQsqaUBKTNV-1" source="B_WRJBv8TTsJT2D4ohCq-7" target="B_WRJBv8TTsJT2D4ohCq-11">
          <mxGeometry relative="1" as="geometry" />
        </mxCell>
        <mxCell id="B_WRJBv8TTsJT2D4ohCq-7" value="Todas las separaciones de señales piloto: 5, 10 y 20" style="rounded=1;whiteSpace=wrap;html=1;" vertex="1" parent="WIyWlLk6GJQsqaUBKTNV-1">
          <mxGeometry x="260" y="370" width="120" height="60" as="geometry" />
        </mxCell>
        <mxCell id="B_WRJBv8TTsJT2D4ohCq-14" style="edgeStyle=orthogonalEdgeStyle;rounded=0;orthogonalLoop=1;jettySize=auto;html=1;entryX=0.5;entryY=0;entryDx=0;entryDy=0;" edge="1" parent="WIyWlLk6GJQsqaUBKTNV-1" source="B_WRJBv8TTsJT2D4ohCq-8" target="B_WRJBv8TTsJT2D4ohCq-11">
          <mxGeometry relative="1" as="geometry" />
        </mxCell>
        <mxCell id="B_WRJBv8TTsJT2D4ohCq-8" value="Todos los escenarios: del 1 al 9" style="rounded=1;whiteSpace=wrap;html=1;" vertex="1" parent="WIyWlLk6GJQsqaUBKTNV-1">
          <mxGeometry x="450" y="370" width="120" height="60" as="geometry" />
        </mxCell>
        <mxCell id="B_WRJBv8TTsJT2D4ohCq-16" value="" style="edgeStyle=orthogonalEdgeStyle;rounded=0;orthogonalLoop=1;jettySize=auto;html=1;" edge="1" parent="WIyWlLk6GJQsqaUBKTNV-1" source="B_WRJBv8TTsJT2D4ohCq-11" target="B_WRJBv8TTsJT2D4ohCq-15">
          <mxGeometry relative="1" as="geometry" />
        </mxCell>
        <mxCell id="B_WRJBv8TTsJT2D4ohCq-11" value="usando scenarioBER()" style="rounded=1;whiteSpace=wrap;html=1;" vertex="1" parent="WIyWlLk6GJQsqaUBKTNV-1">
          <mxGeometry x="354" y="510" width="120" height="60" as="geometry" />
        </mxCell>
        <mxCell id="B_WRJBv8TTsJT2D4ohCq-18" value="" style="edgeStyle=orthogonalEdgeStyle;rounded=0;orthogonalLoop=1;jettySize=auto;html=1;" edge="1" parent="WIyWlLk6GJQsqaUBKTNV-1" source="B_WRJBv8TTsJT2D4ohCq-15">
          <mxGeometry relative="1" as="geometry">
            <mxPoint x="414" y="730" as="targetPoint" />
          </mxGeometry>
        </mxCell>
        <mxCell id="B_WRJBv8TTsJT2D4ohCq-15" value="Se guardan los gráficos con las curvas obtenidas" style="rounded=1;whiteSpace=wrap;html=1;" vertex="1" parent="WIyWlLk6GJQsqaUBKTNV-1">
          <mxGeometry x="354" y="600" width="120" height="60" as="geometry" />
        </mxCell>
        <mxCell id="B_WRJBv8TTsJT2D4ohCq-19" value="Fin" style="ellipse;whiteSpace=wrap;html=1;" vertex="1" parent="WIyWlLk6GJQsqaUBKTNV-1">
          <mxGeometry x="367" y="700" width="94" height="60" as="geometry" />
        </mxCell>
      </root>
    </mxGraphModel>
  </diagram>
</mxfile>
